<svg width="260" height="204" viewBox="0 0 260 204" fill="none" xmlns="http://www.w3.org/2000/svg">
<path d="M162.662 158.396H141.053V88.3139C141.053 87.0413 140.003 86 138.72 86H121.222C119.939 86 118.889 87.0413 118.889 88.3139V158.396H97.3377C95.3838 158.396 94.3048 160.623 95.5005 162.127L128.163 203.112C128.381 203.389 128.66 203.612 128.978 203.766C129.296 203.92 129.646 204 130 204C130.354 204 130.704 203.92 131.022 203.766C131.34 203.612 131.619 203.389 131.837 203.112L164.5 162.127C165.695 160.623 164.616 158.396 162.662 158.396V158.396Z" fill="black"/>
<path d="M216.879 59.943C203.589 24.911 169.725 0 130.058 0C90.3906 0 56.5268 24.882 43.2366 59.914C18.3683 66.439 0 89.088 0 116C0 148.045 25.971 174 58.0067 174H69.6429C70.9196 174 71.9643 172.956 71.9643 171.68V154.28C71.9643 153.004 70.9196 151.96 69.6429 151.96H58.0067C48.2277 151.96 39.029 148.074 32.1808 141.027C25.3616 134.009 21.7344 124.555 22.0536 114.753C22.3147 107.097 24.9263 99.905 29.6562 93.844C34.5022 87.667 41.2924 83.172 48.8371 81.171L59.8348 78.3L63.8683 67.686C66.3638 61.074 69.846 54.897 74.2277 49.3C78.5534 43.7525 83.6775 38.8759 89.433 34.829C101.359 26.448 115.404 22.011 130.058 22.011C144.712 22.011 158.757 26.448 170.683 34.829C176.458 38.889 181.565 43.761 185.888 49.3C190.27 54.897 193.752 61.103 196.248 67.686L200.252 78.271L211.221 81.171C226.949 85.405 237.946 99.702 237.946 116C237.946 125.599 234.203 134.647 227.413 141.433C224.083 144.78 220.122 147.434 215.758 149.241C211.395 151.048 206.716 151.972 201.993 151.96H190.357C189.08 151.96 188.036 153.004 188.036 154.28V171.68C188.036 172.956 189.08 174 190.357 174H201.993C234.029 174 260 148.045 260 116C260 89.117 241.69 66.497 216.879 59.943Z" fill="black"/>
</svg>
