<svg width="57" height="77" viewBox="0 0 57 77" fill="none" xmlns="http://www.w3.org/2000/svg">
<path fill-rule="evenodd" clip-rule="evenodd" d="M3.80597 32.2024C4.53631 32.1897 5.24102 32.4235 5.76509 32.8524C6.28916 33.2813 6.58965 33.8703 6.60046 34.4896L6.68199 39.1601C6.76847 44.1149 9.17241 48.8262 13.365 52.2576C17.5575 55.6891 23.1952 57.5595 29.0379 57.4576C34.8806 57.3556 40.4496 55.2895 44.5198 51.7138C48.5901 48.1382 50.8281 43.3458 50.7416 38.391L50.6601 33.7205C50.6493 33.1012 50.929 32.5022 51.4378 32.0552C51.9466 31.6082 52.6427 31.35 53.3731 31.3372C54.1034 31.3245 54.8081 31.5583 55.3322 31.9872C55.8563 32.4161 56.1567 33.0051 56.1676 33.6244L56.2491 38.2949C56.3502 44.0841 53.912 49.7112 49.4076 54.0846C44.9031 58.458 38.6534 61.2657 31.8711 61.9632L32.0362 71.421L48.5586 71.1326C49.2889 71.1198 49.9936 71.3536 50.5177 71.7826C51.0418 72.2115 51.3422 72.8004 51.3531 73.4198C51.3639 74.0391 51.0841 74.6381 50.5753 75.0851C50.0666 75.5321 49.3704 75.7903 48.6401 75.8031L10.0879 76.476C9.35757 76.4887 8.65286 76.2549 8.12879 75.826C7.60472 75.3971 7.30423 74.8082 7.29342 74.1888C7.2826 73.5695 7.56236 72.9704 8.07114 72.5235C8.57992 72.0765 9.27605 71.8183 10.0064 71.8055L26.5287 71.5171L26.3637 62.0594C19.5611 61.599 13.2173 59.011 8.56294 54.7975C3.90858 50.5841 1.2755 45.0454 1.17453 39.2562L1.09301 34.5857C1.0822 33.9664 1.36195 33.3673 1.87073 32.9204C2.37951 32.4734 3.07564 32.2152 3.80597 32.2024Z" fill="white"/>
<path fill-rule="evenodd" clip-rule="evenodd" d="M39.7176 37.9578L39.3168 14.9959C39.2743 12.56 38.073 10.2441 35.9773 8.55764C33.8815 6.87122 31.0629 5.95245 28.1416 6.00344C25.2203 6.05443 22.4355 7.07101 20.3998 8.82954C18.3642 10.5881 17.2445 12.9445 17.287 15.3805L17.6878 38.3423C17.7303 40.7783 18.9316 43.0942 21.0274 44.7806C23.1231 46.467 25.9417 47.3858 28.863 47.3348C31.7844 47.2838 34.5692 46.2672 36.6048 44.5087C38.6404 42.7502 39.7601 40.3938 39.7176 37.9578ZM28.0614 1.41106C23.6794 1.48755 19.5022 3.01242 16.4488 5.65022C13.3953 8.28802 11.7158 11.8227 11.7795 15.4766L12.1803 38.4385C12.2441 42.0924 14.046 45.5663 17.1897 48.0959C20.3333 50.6255 24.5612 52.0037 28.9432 51.9272C33.3252 51.8507 37.5024 50.3258 40.5558 47.688C43.6093 45.0502 45.2889 41.5156 45.2251 37.8617L44.8243 14.8998C44.7605 11.2459 42.9586 7.77199 39.8149 5.24236C36.6713 2.71273 32.4434 1.33458 28.0614 1.41106V1.41106Z" fill="white"/>
</svg>
