<svg width="203" height="62" viewBox="0 0 203 62" fill="none" xmlns="http://www.w3.org/2000/svg">
<path d="M0.677246 14.0078L5.04355 21.4576H0.677246V14.0078Z" fill="#0091C6"/>
<path d="M26.864 14.0078L31.2304 21.4576H22.4977L26.864 14.0078Z" fill="#7EDCFF"/>
<path d="M18.1355 14.0078L22.5018 21.4576H13.7692L18.1355 14.0078Z" fill="#C4C4C4"/>
<path d="M9.40603 14.0078L13.7723 21.4576H5.03973L9.40603 14.0078Z" fill="#CFF2FF"/>
<path d="M35.593 14.0078L39.9594 21.4576H31.2267L35.593 14.0078Z" fill="#C4C4C4"/>
<path d="M5.04178 21.6833L9.40808 29.1331H0.67547L5.04178 21.6833Z" fill="#7EDCFF"/>
<path d="M31.2283 21.6833L35.5946 29.1331H26.862L31.2283 21.6833Z" fill="#CFF2FF"/>
<path d="M22.4998 21.6833L26.8661 29.1331H18.1335L22.4998 21.6833Z" fill="#0091C6"/>
<path d="M13.7708 21.6833L18.1371 29.1331H9.40447L13.7708 21.6833Z" fill="#C4C4C4"/>
<path d="M39.9578 21.6833L44.3241 29.1331H35.5915L39.9578 21.6833Z" fill="#7EDCFF"/>
<path d="M5.04178 51.7834L9.40808 59.2332H0.67547L5.04178 51.7834Z" fill="#0091C6"/>
<path d="M31.2283 51.7834L35.5946 59.2332H26.862L31.2283 51.7834Z" fill="#C4C4C4"/>
<path d="M22.4998 51.7834L26.8661 59.2332H18.1335L22.4998 51.7834Z" fill="#CFF2FF"/>
<path d="M13.7708 51.7834L18.1371 59.2332H9.40447L13.7708 51.7834Z" fill="#C4C4C4"/>
<path d="M39.9578 51.7834L44.3241 59.2332H35.5915L39.9578 51.7834Z" fill="#7EDCFF"/>
<path d="M26.864 44.2583L31.2304 51.7081H22.4977L26.864 44.2583Z" fill="#0091C6"/>
<path d="M18.1355 44.2583L22.5018 51.7081H13.7692L18.1355 44.2583Z" fill="#7EDCFF"/>
<path d="M9.40603 44.2583L13.7723 51.7081H5.03973L9.40603 44.2583Z" fill="#C4C4C4"/>
<path d="M35.593 44.2583L39.9594 51.7081H31.2267L35.593 44.2583Z" fill="#CFF2FF"/>
<path d="M5.04178 36.7332L9.40808 44.1829H0.67547L5.04178 36.7332Z" fill="#C4C4C4"/>
<path d="M31.2283 36.7332L35.5946 44.1829H26.862L31.2283 36.7332Z" fill="#7EDCFF"/>
<path d="M22.4998 36.7332L26.8661 44.1829H18.1335L22.4998 36.7332Z" fill="#CFF2FF"/>
<path d="M0.677246 44.2583L5.04355 51.7081H0.677246V44.2583Z" fill="#CFF2FF"/>
<path d="M13.7708 36.7332L18.1371 44.1829H9.40447L13.7708 36.7332Z" fill="#0091C6"/>
<path d="M39.9578 36.7332L44.3241 44.1829H35.5915L39.9578 36.7332Z" fill="#0091C6"/>
<path d="M0.677246 29.2083L5.04355 36.658H0.677246V29.2083Z" fill="#0091C6"/>
<path d="M26.864 29.2083L31.2304 36.658H22.4977L26.864 29.2083Z" fill="#C4C4C4"/>
<path d="M18.1355 29.2083L22.5018 36.658H13.7692L18.1355 29.2083Z" fill="#7EDCFF"/>
<path d="M9.40603 29.2083L13.7723 36.658H5.03973L9.40603 29.2083Z" fill="#CFF2FF"/>
<path d="M44.3219 29.2083L44.3219 36.658H39.9556L44.3219 29.2083Z" fill="#CFF2FF"/>
<path d="M35.593 29.2083L39.9594 36.658H31.2267L35.593 29.2083Z" fill="#C4C4C4"/>
<path d="M5.04212 21.4497L0.675823 13.9999L9.40841 13.9999L5.04212 21.4497Z" fill="#E5E5E5"/>
<path d="M13.7718 21.6921L18.1381 29.1419H9.40545L13.7718 21.6921Z" fill="#00B3B5"/>
<path d="M35.593 29.2083L39.9594 36.658H31.2267L35.593 29.2083Z" fill="#00B3B5"/>
<path d="M31.2487 21.457L26.8824 14.0072L35.615 14.0072L31.2487 21.457Z" fill="#E5E5E5"/>
<path d="M9.40603 44.2583L13.7723 51.7081H5.03973L9.40603 44.2583Z" fill="#00B3B5"/>
<path d="M44.3219 14.0078L44.3219 21.4576H39.9556L44.3219 14.0078Z" fill="#00B3B5"/>
<path d="M35.593 14.0078L39.9594 21.4576H31.2267L35.593 14.0078Z" fill="#FBBB00"/>
<path d="M44.3219 44.2583V51.7081H39.9556L44.3219 44.2583Z" fill="#FBBB00"/>
<path d="M13.7708 51.7834L18.1371 59.2332H9.40447L13.7708 51.7834Z" fill="#FBBB00"/>
<path d="M5.04178 36.7332L9.40808 44.1829H0.67547L5.04178 36.7332Z" fill="#FBBB00"/>
<path d="M26.864 29.2083L31.2304 36.658H22.4977L26.864 29.2083Z" fill="#FBBB00"/>
<path d="M18.1355 14.0078L22.5018 21.4576H13.7692L18.1355 14.0078Z" fill="#DB7582"/>
<path d="M31.2283 51.9338L35.5946 59.3836H26.862L31.2283 51.9338Z" fill="#DB7582"/>
<path d="M22.4998 36.7332L26.8661 44.1829H18.1335L22.4998 36.7332Z" fill="#DB7582"/>
<path d="M9.40603 29.2083L13.7723 36.658H5.03973L9.40603 29.2083Z" fill="#DB7582"/>
<path d="M31.2283 21.6833L35.5946 29.1331H26.862L31.2283 21.6833Z" fill="#DB7582"/>
<path d="M73.902 41H69.684L56.993 21.797V41H52.775V15.248H56.993L69.684 34.414V15.248H73.902V41ZM91.17 41.259C88.7773 41.259 86.5697 40.704 84.547 39.594C82.549 38.4593 80.958 36.893 79.774 34.895C78.6147 32.8723 78.035 30.603 78.035 28.087C78.035 25.571 78.6147 23.314 79.774 21.316C80.958 19.318 82.549 17.764 84.547 16.654C86.5697 15.5193 88.7773 14.952 91.17 14.952C93.5873 14.952 95.795 15.5193 97.793 16.654C99.8157 17.764 101.407 19.318 102.566 21.316C103.725 23.314 104.305 25.571 104.305 28.087C104.305 30.603 103.725 32.8723 102.566 34.895C101.407 36.893 99.8157 38.4593 97.793 39.594C95.795 40.704 93.5873 41.259 91.17 41.259ZM91.17 37.596C92.872 37.596 94.389 37.2137 95.721 36.449C97.053 35.6597 98.089 34.5497 98.829 33.119C99.5937 31.6637 99.976 29.9863 99.976 28.087C99.976 26.1877 99.5937 24.5227 98.829 23.092C98.089 21.6613 97.053 20.5637 95.721 19.799C94.389 19.0343 92.872 18.652 91.17 18.652C89.468 18.652 87.951 19.0343 86.619 19.799C85.287 20.5637 84.2387 21.6613 83.474 23.092C82.734 24.5227 82.364 26.1877 82.364 28.087C82.364 29.9863 82.734 31.6637 83.474 33.119C84.2387 34.5497 85.287 35.6597 86.619 36.449C87.951 37.2137 89.468 37.596 91.17 37.596ZM125.069 15.285V18.726H118.224V41H114.006V18.726H107.124V15.285H125.069ZM133.558 15.285V41H129.34V15.285H133.558ZM155.709 15.285V18.726H148.864V41H144.646V18.726H137.764V15.285H155.709ZM164.199 15.285V41H159.981V15.285H164.199ZM185.24 35.746H174.473L172.623 41H168.22L177.433 15.248H182.317L191.53 41H187.09L185.24 35.746ZM184.056 32.305L179.875 20.354L175.657 32.305H184.056Z" fill="black"/>
<path d="M55.02 51.05C55.76 51.05 56.4067 51.1933 56.96 51.48C57.52 51.76 57.95 52.1667 58.25 52.7C58.5567 53.2267 58.71 53.8433 58.71 54.55C58.71 55.2567 58.5567 55.87 58.25 56.39C57.95 56.91 57.52 57.31 56.96 57.59C56.4067 57.8633 55.76 58 55.02 58H52.75V51.05H55.02ZM55.02 57.07C55.8333 57.07 56.4567 56.85 56.89 56.41C57.3233 55.97 57.54 55.35 57.54 54.55C57.54 53.7433 57.3233 53.1133 56.89 52.66C56.4567 52.2067 55.8333 51.98 55.02 51.98H53.89V57.07H55.02ZM64.0298 56.58H61.1198L60.6198 58H59.4298L61.9198 51.04H63.2398L65.7298 58H64.5298L64.0298 56.58ZM63.7098 55.65L62.5798 52.42L61.4398 55.65H63.7098ZM71.3025 51.05V51.98H69.4525V58H68.3125V51.98H66.4525V51.05H71.3025ZM75.627 58.07C74.9804 58.07 74.3837 57.92 73.837 57.62C73.297 57.3133 72.867 56.89 72.547 56.35C72.2337 55.8033 72.077 55.19 72.077 54.51C72.077 53.83 72.2337 53.22 72.547 52.68C72.867 52.14 73.297 51.72 73.837 51.42C74.3837 51.1133 74.9804 50.96 75.627 50.96C76.2804 50.96 76.877 51.1133 77.417 51.42C77.9637 51.72 78.3937 52.14 78.707 52.68C79.0204 53.22 79.177 53.83 79.177 54.51C79.177 55.19 79.0204 55.8033 78.707 56.35C78.3937 56.89 77.9637 57.3133 77.417 57.62C76.877 57.92 76.2804 58.07 75.627 58.07ZM75.627 57.08C76.087 57.08 76.497 56.9767 76.857 56.77C77.217 56.5567 77.497 56.2567 77.697 55.87C77.9037 55.4767 78.007 55.0233 78.007 54.51C78.007 53.9967 77.9037 53.5467 77.697 53.16C77.497 52.7733 77.217 52.4767 76.857 52.27C76.497 52.0633 76.087 51.96 75.627 51.96C75.167 51.96 74.757 52.0633 74.397 52.27C74.037 52.4767 73.7537 52.7733 73.547 53.16C73.347 53.5467 73.247 53.9967 73.247 54.51C73.247 55.0233 73.347 55.4767 73.547 55.87C73.7537 56.2567 74.037 56.5567 74.397 56.77C74.757 56.9767 75.167 57.08 75.627 57.08ZM82.5888 58.07C82.1222 58.07 81.7022 57.99 81.3288 57.83C80.9555 57.6633 80.6622 57.43 80.4488 57.13C80.2355 56.83 80.1288 56.48 80.1288 56.08H81.3488C81.3755 56.38 81.4922 56.6267 81.6988 56.82C81.9122 57.0133 82.2088 57.11 82.5888 57.11C82.9822 57.11 83.2888 57.0167 83.5088 56.83C83.7288 56.6367 83.8388 56.39 83.8388 56.09C83.8388 55.8567 83.7688 55.6667 83.6288 55.52C83.4955 55.3733 83.3255 55.26 83.1188 55.18C82.9188 55.1 82.6388 55.0133 82.2788 54.92C81.8255 54.8 81.4555 54.68 81.1688 54.56C80.8888 54.4333 80.6488 54.24 80.4488 53.98C80.2488 53.72 80.1488 53.3733 80.1488 52.94C80.1488 52.54 80.2488 52.19 80.4488 51.89C80.6488 51.59 80.9288 51.36 81.2888 51.2C81.6488 51.04 82.0655 50.96 82.5388 50.96C83.2122 50.96 83.7622 51.13 84.1888 51.47C84.6222 51.8033 84.8622 52.2633 84.9088 52.85H83.6488C83.6288 52.5967 83.5088 52.38 83.2888 52.2C83.0688 52.02 82.7788 51.93 82.4188 51.93C82.0922 51.93 81.8255 52.0133 81.6188 52.18C81.4122 52.3467 81.3088 52.5867 81.3088 52.9C81.3088 53.1133 81.3722 53.29 81.4988 53.43C81.6322 53.5633 81.7988 53.67 81.9988 53.75C82.1988 53.83 82.4722 53.9167 82.8188 54.01C83.2788 54.1367 83.6522 54.2633 83.9388 54.39C84.2322 54.5167 84.4788 54.7133 84.6788 54.98C84.8855 55.24 84.9888 55.59 84.9888 56.03C84.9888 56.3833 84.8922 56.7167 84.6988 57.03C84.5122 57.3433 84.2355 57.5967 83.8688 57.79C83.5088 57.9767 83.0822 58.07 82.5888 58.07ZM93.1216 56.58H90.2116L89.7116 58H88.5216L91.0116 51.04H92.3316L94.8216 58H93.6216L93.1216 56.58ZM92.8016 55.65L91.6716 52.42L90.5316 55.65H92.8016ZM99.6243 54.43C99.9976 54.4967 100.314 54.6933 100.574 55.02C100.834 55.3467 100.964 55.7167 100.964 56.13C100.964 56.4833 100.871 56.8033 100.684 57.09C100.504 57.37 100.241 57.5933 99.8943 57.76C99.5476 57.92 99.1443 58 98.6843 58H95.9043V51.05H98.5543C99.0276 51.05 99.4343 51.13 99.7743 51.29C100.114 51.45 100.371 51.6667 100.544 51.94C100.718 52.2067 100.804 52.5067 100.804 52.84C100.804 53.24 100.698 53.5733 100.484 53.84C100.271 54.1067 99.9843 54.3033 99.6243 54.43ZM97.0443 53.97H98.4543C98.8276 53.97 99.1176 53.8867 99.3243 53.72C99.5376 53.5467 99.6443 53.3 99.6443 52.98C99.6443 52.6667 99.5376 52.4233 99.3243 52.25C99.1176 52.07 98.8276 51.98 98.4543 51.98H97.0443V53.97ZM98.5843 57.07C98.971 57.07 99.2743 56.9767 99.4943 56.79C99.7143 56.6033 99.8243 56.3433 99.8243 56.01C99.8243 55.67 99.7076 55.4 99.4743 55.2C99.241 55 98.931 54.9 98.5443 54.9H97.0443V57.07H98.5843ZM103.343 51.05V58H102.203V51.05H103.343ZM105.98 51.97V54.01H108.38V54.94H105.98V57.07H108.68V58H104.84V51.04H108.68V51.97H105.98ZM113.694 58L112.094 55.22H111.224V58H110.084V51.05H112.484C113.017 51.05 113.467 51.1433 113.834 51.33C114.207 51.5167 114.484 51.7667 114.664 52.08C114.851 52.3933 114.944 52.7433 114.944 53.13C114.944 53.5833 114.811 53.9967 114.544 54.37C114.284 54.7367 113.881 54.9867 113.334 55.12L115.054 58H113.694ZM111.224 54.31H112.484C112.911 54.31 113.231 54.2033 113.444 53.99C113.664 53.7767 113.774 53.49 113.774 53.13C113.774 52.77 113.667 52.49 113.454 52.29C113.241 52.0833 112.917 51.98 112.484 51.98H111.224V54.31ZM120.892 51.05V51.98H119.042V58H117.902V51.98H116.042V51.05H120.892ZM125.217 58.07C124.57 58.07 123.974 57.92 123.427 57.62C122.887 57.3133 122.457 56.89 122.137 56.35C121.824 55.8033 121.667 55.19 121.667 54.51C121.667 53.83 121.824 53.22 122.137 52.68C122.457 52.14 122.887 51.72 123.427 51.42C123.974 51.1133 124.57 50.96 125.217 50.96C125.87 50.96 126.467 51.1133 127.007 51.42C127.554 51.72 127.984 52.14 128.297 52.68C128.61 53.22 128.767 53.83 128.767 54.51C128.767 55.19 128.61 55.8033 128.297 56.35C127.984 56.89 127.554 57.3133 127.007 57.62C126.467 57.92 125.87 58.07 125.217 58.07ZM125.217 57.08C125.677 57.08 126.087 56.9767 126.447 56.77C126.807 56.5567 127.087 56.2567 127.287 55.87C127.494 55.4767 127.597 55.0233 127.597 54.51C127.597 53.9967 127.494 53.5467 127.287 53.16C127.087 52.7733 126.807 52.4767 126.447 52.27C126.087 52.0633 125.677 51.96 125.217 51.96C124.757 51.96 124.347 52.0633 123.987 52.27C123.627 52.4767 123.344 52.7733 123.137 53.16C122.937 53.5467 122.837 53.9967 122.837 54.51C122.837 55.0233 122.937 55.4767 123.137 55.87C123.344 56.2567 123.627 56.5567 123.987 56.77C124.347 56.9767 124.757 57.08 125.217 57.08ZM132.179 58.07C131.712 58.07 131.292 57.99 130.919 57.83C130.545 57.6633 130.252 57.43 130.039 57.13C129.825 56.83 129.719 56.48 129.719 56.08H130.939C130.965 56.38 131.082 56.6267 131.289 56.82C131.502 57.0133 131.799 57.11 132.179 57.11C132.572 57.11 132.879 57.0167 133.099 56.83C133.319 56.6367 133.429 56.39 133.429 56.09C133.429 55.8567 133.359 55.6667 133.219 55.52C133.085 55.3733 132.915 55.26 132.709 55.18C132.509 55.1 132.229 55.0133 131.869 54.92C131.415 54.8 131.045 54.68 130.759 54.56C130.479 54.4333 130.239 54.24 130.039 53.98C129.839 53.72 129.739 53.3733 129.739 52.94C129.739 52.54 129.839 52.19 130.039 51.89C130.239 51.59 130.519 51.36 130.879 51.2C131.239 51.04 131.655 50.96 132.129 50.96C132.802 50.96 133.352 51.13 133.779 51.47C134.212 51.8033 134.452 52.2633 134.499 52.85H133.239C133.219 52.5967 133.099 52.38 132.879 52.2C132.659 52.02 132.369 51.93 132.009 51.93C131.682 51.93 131.415 52.0133 131.209 52.18C131.002 52.3467 130.899 52.5867 130.899 52.9C130.899 53.1133 130.962 53.29 131.089 53.43C131.222 53.5633 131.389 53.67 131.589 53.75C131.789 53.83 132.062 53.9167 132.409 54.01C132.869 54.1367 133.242 54.2633 133.529 54.39C133.822 54.5167 134.069 54.7133 134.269 54.98C134.475 55.24 134.579 55.59 134.579 56.03C134.579 56.3833 134.482 56.7167 134.289 57.03C134.102 57.3433 133.825 57.5967 133.459 57.79C133.099 57.9767 132.672 58.07 132.179 58.07Z" fill="black"/>
<circle cx="199" cy="38" r="4" fill="#40A9FF"/>
</svg>
