<svg width="219" height="217" viewBox="0 0 219 217" fill="none" xmlns="http://www.w3.org/2000/svg">
<path d="M194.212 74.8276L139.911 67.008L115.638 18.2465C114.975 16.9115 113.884 15.8307 112.536 15.1738C109.157 13.5208 105.051 14.8983 103.362 18.2465L79.0876 67.008L24.7867 74.8276C23.2897 75.0395 21.9209 75.7388 20.873 76.7984C19.6061 78.0887 18.9079 79.8245 18.932 81.6246C18.9561 83.4246 19.7003 85.1415 21.0013 86.3981L60.2887 124.352L51.0069 177.945C50.7892 179.192 50.9284 180.474 51.4088 181.646C51.8891 182.818 52.6913 183.834 53.7244 184.577C54.7576 185.321 55.9803 185.763 57.2539 185.853C58.5275 185.943 59.8012 185.677 60.9303 185.087L109.5 159.784L158.069 185.087C159.395 185.786 160.935 186.019 162.41 185.765C166.132 185.129 168.634 181.632 167.992 177.945L158.71 124.352L197.998 86.3981C199.067 85.3597 199.773 84.0035 199.987 82.5201C200.564 78.8116 197.955 75.3786 194.212 74.8276V74.8276ZM142.178 119.012L149.899 163.577L109.5 142.555L69.1 163.598L76.8206 119.033L44.1417 87.4577L89.3105 80.9519L109.5 40.4127L129.689 80.9519L174.857 87.4577L142.178 119.012Z" fill="black"/>
<path d="M194.212 74.8276L139.911 67.008L115.638 18.2465C114.975 16.9115 113.884 15.8307 112.536 15.1738C109.157 13.5208 105.051 14.8983 103.362 18.2465L79.0876 67.008L24.7867 74.8276C23.2897 75.0395 21.9209 75.7388 20.873 76.7984C19.6061 78.0887 18.9079 79.8245 18.932 81.6246C18.9561 83.4246 19.7003 85.1415 21.0013 86.3981L60.2887 124.352L51.0069 177.945C50.7892 179.192 50.9284 180.474 51.4088 181.646C51.8891 182.818 52.6913 183.834 53.7244 184.577C54.7576 185.321 55.9803 185.763 57.2539 185.853C58.5275 185.943 59.8012 185.677 60.9303 185.087L109.5 159.784L158.069 185.087C159.395 185.786 160.935 186.019 162.41 185.765C166.132 185.129 168.634 181.632 167.992 177.945L158.71 124.352L197.998 86.3981C199.067 85.3597 199.773 84.0035 199.987 82.5201C200.564 78.8116 197.955 75.3786 194.212 74.8276V74.8276ZM142.178 119.012L149.899 163.577L109.5 142.555L69.1 163.598L76.8206 119.033L44.1417 87.4577L89.3105 80.9519L109.5 40.4127L129.689 80.9519L174.857 87.4577L142.178 119.012Z" fill="black"/>
<path d="M174.663 82.5981L132.894 76.583L114.221 39.0743C113.711 38.0473 112.872 37.2159 111.836 36.7106C109.236 35.4391 106.078 36.4987 104.778 39.0743L86.1059 76.583L44.336 82.5981C43.1844 82.7612 42.1315 83.2991 41.3254 84.1141C40.3509 85.1067 39.8139 86.4419 39.8324 87.8266C39.8509 89.2112 40.4234 90.5319 41.4241 91.4985L71.6452 120.694L64.5053 161.919C64.3379 162.878 64.445 163.864 64.8145 164.766C65.184 165.668 65.8011 166.449 66.5958 167.021C67.3905 167.593 68.3311 167.933 69.3108 168.002C70.2905 168.071 71.2702 167.867 72.1388 167.413L109.5 147.949L146.861 167.413C147.881 167.951 149.065 168.13 150.2 167.934C153.063 167.445 154.988 164.756 154.494 161.919L147.354 120.694L177.575 91.4985C178.398 90.6998 178.941 89.6565 179.105 88.5154C179.549 85.6627 177.542 83.022 174.663 82.5981V82.5981Z" fill="black"/>
</svg>
