<svg width="211" height="201" viewBox="0 0 211 201" fill="none" xmlns="http://www.w3.org/2000/svg">
<path d="M204.18 70.7778L140.927 61.6075L112.65 4.4237C111.878 2.85804 110.608 1.5906 109.038 0.820199C105.102 -1.11824 100.319 0.497127 98.3505 4.4237L70.0744 61.6075L6.82075 70.7778C5.07685 71.0263 3.48243 71.8464 2.2617 73.089C0.785903 74.6022 -0.0273271 76.6379 0.000701195 78.7488C0.0287295 80.8598 0.895723 82.8733 2.41117 84.3469L48.1761 128.856L37.3639 191.706C37.1103 193.168 37.2725 194.672 37.832 196.047C38.3916 197.422 39.3261 198.612 40.5295 199.484C41.733 200.356 43.1573 200.874 44.6409 200.98C46.1245 201.085 47.6081 200.774 48.9234 200.081L105.501 170.408L162.078 200.081C163.622 200.901 165.416 201.175 167.135 200.877C171.47 200.131 174.385 196.031 173.637 191.706L162.825 128.856L208.59 84.3469C209.835 83.1291 210.658 81.5386 210.907 79.799C211.579 75.4499 208.54 71.424 204.18 70.7778V70.7778ZM143.567 122.594L152.561 174.857L105.501 150.204L58.4402 174.882L67.4337 122.619L29.3669 85.5895L81.9828 77.96L105.501 30.4186L129.018 77.96L181.634 85.5895L143.567 122.594Z" fill="black"/>
</svg>
