<svg width="157" height="149" viewBox="0 0 157 149" fill="none" xmlns="http://www.w3.org/2000/svg">
<path d="M151.27 52.2876L104.407 45.513L83.4587 3.26804C82.8865 2.1114 81.9452 1.17507 80.7824 0.605927C77.8662 -0.826104 74.3225 0.367256 72.8644 3.26804L51.9156 45.513L5.05325 52.2876C3.76126 52.4712 2.58 53.077 1.67561 53.995C0.582247 55.1128 -0.0202457 56.6167 0.00051949 58.1762C0.0212847 59.7357 0.663609 61.2232 1.78635 62.3118L35.6919 95.1934L27.6816 141.624C27.4937 142.704 27.6139 143.815 28.0284 144.831C28.4429 145.846 29.1353 146.726 30.0269 147.37C30.9185 148.014 31.9737 148.397 33.0729 148.475C34.172 148.553 35.2712 148.323 36.2456 147.811L78.1615 125.89L120.077 147.811C121.222 148.417 122.551 148.619 123.824 148.399C127.036 147.848 129.195 144.819 128.642 141.624L120.631 95.1934L154.537 62.3118C155.46 61.4122 156.069 60.2372 156.253 58.952C156.752 55.7391 154.5 52.7649 151.27 52.2876V52.2876ZM106.364 90.5669L113.027 129.177L78.1615 110.964L43.2962 129.195L49.9592 90.5852L21.7569 63.2298L60.7381 57.5934L78.1615 22.4719L95.585 57.5934L134.566 63.2298L106.364 90.5669Z" fill="#1890FF"/>
</svg>
