<svg width="195" height="184" viewBox="0 0 195 184" fill="none" xmlns="http://www.w3.org/2000/svg">
<path d="M188.697 64.7916L130.24 56.3969L104.108 4.04956C103.395 2.61632 102.22 1.45607 100.77 0.750829C97.1321 -1.02366 92.7115 0.455081 90.8927 4.04956L64.7607 56.3969L6.30353 64.7916C4.69187 65.0191 3.21836 65.7699 2.09019 66.9074C0.726308 68.2925 -0.0252549 70.1561 0.000648024 72.0885C0.026551 74.0209 0.8278 75.8641 2.22834 77.2131L44.5229 117.958L34.5306 175.492C34.2963 176.831 34.4462 178.207 34.9633 179.466C35.4804 180.724 36.344 181.814 37.4562 182.613C38.5684 183.411 39.8847 183.885 41.2558 183.982C42.6269 184.078 43.998 183.793 45.2136 183.159L97.5005 155.996L149.787 183.159C151.215 183.91 152.873 184.16 154.461 183.887C158.467 183.205 161.161 179.451 160.47 175.492L150.478 117.958L192.773 77.2131C193.924 76.0983 194.684 74.6423 194.914 73.0498C195.535 69.0686 192.727 65.3831 188.697 64.7916V64.7916Z" fill="#1890FF"/>
</svg>
