<svg width="321" height="321" viewBox="0 0 321 321" fill="none" xmlns="http://www.w3.org/2000/svg">
<path d="M160.457 78.148C114.885 78.148 78.1064 114.927 78.1064 160.5C78.1064 206.073 114.885 242.852 160.457 242.852C206.029 242.852 242.807 206.073 242.807 160.5C242.807 114.927 206.029 78.148 160.457 78.148ZM160.457 214.023C130.986 214.023 106.935 189.972 106.935 160.5C106.935 131.028 130.986 106.977 160.457 106.977C189.928 106.977 213.979 131.028 213.979 160.5C213.979 189.972 189.928 214.023 160.457 214.023ZM246.18 55.5825C235.54 55.5825 226.948 64.175 226.948 74.8154C226.948 85.4557 235.54 94.0482 246.18 94.0482C256.82 94.0482 265.413 85.4958 265.413 74.8154C265.416 72.2888 264.92 69.7864 263.955 67.4515C262.99 65.1166 261.573 62.9952 259.787 61.2086C258 59.422 255.879 58.0055 253.544 57.04C251.209 56.0746 248.707 55.5793 246.18 55.5825V55.5825ZM320.982 160.5C320.982 138.336 321.183 116.373 319.938 94.249C318.693 68.5516 312.831 45.7452 294.041 26.954C275.21 8.12267 252.444 2.30061 226.747 1.0559C204.583 -0.188818 182.62 0.011943 160.497 0.011943C138.333 0.011943 116.371 -0.188818 94.2472 1.0559C68.5504 2.30061 45.7444 8.16282 26.9535 26.954C8.12252 45.7854 2.30057 68.5516 1.05588 94.249C-0.188815 116.413 0.0119428 138.376 0.0119428 160.5C0.0119428 182.624 -0.188815 204.627 1.05588 226.751C2.30057 252.448 8.16267 275.255 26.9535 294.046C45.7845 312.877 68.5504 318.699 94.2472 319.944C116.411 321.189 138.374 320.988 160.497 320.988C182.661 320.988 204.623 321.189 226.747 319.944C252.444 318.699 275.25 312.837 294.041 294.046C312.872 275.215 318.693 252.448 319.938 226.751C321.223 204.627 320.982 182.664 320.982 160.5V160.5ZM285.649 255.179C282.718 262.486 279.184 267.947 273.523 273.568C267.862 279.23 262.441 282.763 255.134 285.694C234.014 294.086 183.865 292.199 160.457 292.199C137.049 292.199 86.8594 294.086 65.7398 285.735C58.4322 282.803 52.9716 279.27 47.3504 273.609C41.6891 267.947 38.1558 262.527 35.2247 255.219C26.8732 234.059 28.7603 183.909 28.7603 160.5C28.7603 137.091 26.8732 86.9011 35.2247 65.7811C38.1558 58.4734 41.6891 53.0128 47.3504 47.3915C53.0118 41.7702 58.4322 38.1966 65.7398 35.2655C86.8594 26.9139 137.049 28.801 160.457 28.801C183.865 28.801 234.054 26.9139 255.174 35.2655C262.482 38.1966 267.942 41.73 273.563 47.3915C279.225 53.0529 282.758 58.4734 285.689 65.7811C294.041 86.9011 292.153 137.091 292.153 160.5C292.153 183.909 294.041 234.059 285.649 255.179Z" fill="white"/>
</svg>
