<svg width="313" height="278" viewBox="0 0 313 278" fill="none" xmlns="http://www.w3.org/2000/svg">
<path d="M95.7446 277.85H94.3578C66.4205 277.605 38.8871 271.14 13.7512 258.923C9.12759 256.747 5.32061 253.146 2.8876 248.647C0.454588 244.148 -0.476683 238.986 0.230117 233.919C0.998816 228.817 3.35709 224.088 6.96825 220.409C10.5794 216.729 15.2588 214.286 20.3384 213.429C35.9156 211.347 50.9011 206.088 64.3687 197.975C40.9869 179.664 22.9863 155.357 12.2746 127.63C1.56292 99.9041 -1.46086 69.7916 3.52372 40.4839C4.19957 35.8417 6.19266 31.4917 9.26582 27.9516C12.339 24.4115 16.3628 21.8303 20.8585 20.5153C25.2323 19.1394 29.9132 19.0806 34.3201 20.3462C38.727 21.6118 42.6657 24.1462 45.6472 27.6345C55.7707 40.9316 68.4925 52.0233 83.0366 60.2331C97.5807 68.4428 113.642 73.5984 130.241 75.3855C131.034 54.9282 139.81 35.5997 154.683 21.5571C162.109 14.434 170.876 8.86252 180.474 5.16741C190.071 1.47231 200.307 -0.272557 210.584 0.0345057C220.861 0.341568 230.975 2.69442 240.335 6.95594C249.696 11.2175 258.116 17.3024 265.105 24.8563C266.926 26.4689 269.189 27.4965 271.599 27.8061C274.01 28.1157 276.458 27.693 278.626 26.5927C282.759 24.6401 287.362 23.905 291.896 24.4733C296.431 25.0416 300.71 26.8898 304.236 29.8023C307.761 32.7148 310.387 36.5715 311.807 40.9224C313.227 45.2733 313.383 49.939 312.256 54.3751C308.257 70.8728 300.682 86.2865 290.067 99.5214C287.728 148.918 265.987 195.384 229.585 228.79C193.184 262.195 145.074 279.83 95.7446 277.85V277.85ZM95.7446 243.122H97.1314C117.286 243.816 137.378 240.496 156.242 233.354C175.106 226.212 192.367 215.39 207.024 201.515C221.681 187.641 233.443 170.99 241.628 152.528C249.813 134.066 254.257 114.16 254.704 93.9649C254.991 88.4302 257.269 83.1868 261.118 79.2056C265.346 73.8444 268.952 68.0189 271.866 61.8416C265.621 61.8535 259.444 60.545 253.738 58.0017C248.033 55.4583 242.928 51.7374 238.756 47.0822C234.745 43.0981 229.981 39.9556 224.742 37.8387C219.503 35.7218 213.896 34.673 208.247 34.7538C202.542 34.606 196.864 35.5883 191.54 37.6444C186.215 39.7005 181.348 42.7897 177.218 46.7349C171.646 52.0309 167.561 58.6998 165.37 66.0743C163.18 73.4488 162.962 81.2701 164.737 88.7557L169.244 108.551L148.962 109.94C128.18 111.637 107.277 108.79 87.7015 101.594C68.1263 94.3983 50.3463 83.0266 35.593 68.2662C34.9603 91.1241 40.6687 113.71 52.0835 133.513C63.4983 153.315 80.1723 169.559 100.252 180.438L116.72 189.814L105.799 205.442C93.9885 220.957 77.8063 232.57 59.3416 238.781C71.1867 241.754 83.3602 243.213 95.5713 243.122H95.7446Z" fill="white"/>
</svg>
