<svg width="321" height="321" viewBox="0 0 321 321" fill="none" xmlns="http://www.w3.org/2000/svg">
<path d="M308.16 0H12.84C5.73787 0 0 5.73787 0 12.84V308.16C0 315.262 5.73787 321 12.84 321H308.16C315.262 321 321 315.262 321 308.16V12.84C321 5.73787 315.262 0 308.16 0ZM271.084 93.6919H245.445C225.342 93.6919 221.45 103.242 221.45 117.285V148.222H269.439L263.18 196.653H221.45V321H171.414V196.693H129.564V148.222H171.414V112.51C171.414 71.0614 196.733 48.471 233.728 48.471C251.463 48.471 266.671 49.7951 271.125 50.397V93.6919H271.084Z" fill="white"/>
</svg>
